<svg xmlns="http://www.w3.org/2000/svg" viewBox="0 0 300 300">
    <g fill="none">
        <path fill="#809478"
            d="M61.71 0v193.548l135.557-.101-9.03-20.625H85.047V0H61.71zm42.818.508v154.94h23.337v-49.073h51.646l37.136 86.97H241.1l-39.368-92.66c21.738-5.985 34.802-25.915 34.802-47.954 0-15.781-7.285-31.22-19.785-40.742C204.249 2.467 189.552.508 174.336.508h-69.808zm23.337 20.117h46.471c9.781 0 17.623.28 25.772 5.994 8.97 5.987 13.09 15.025 13.09 25.908 0 8.978-3.016 17.96-9.538 24.486-9.238 9.526-19.567 10.363-32.063 10.363h-43.732V20.625z" />
        <path fill="#7F7F7F"
            d="M146.406 235.484c-2.985 0-5.41 2.163-5.41 5.376 0 1.932 1.11 3.396 2.246 4.86-2.523 1.31-5.002 3.263-5.002 6.41 0 4.177 2.916 6.617 6.941 6.617 2.56 0 4.487-.869 6.124-2.895l1.94 2.481h4.388l-4.286-5.17c.984-1.554 1.522-3.548 1.735-5.479h-3.062c-.151 1.431-.466 2.312-.715 2.998l-3.368-4.135c2.127-1.154 3.98-3.069 3.98-5.687 0-3.552-2.678-5.376-5.511-5.376zM3 236.104v22.23h3.777v-10.03h10.002v10.03h3.879v-22.23h-3.879v8.788H6.777v-8.788H3zm24.394 0v22.23h16.127v-3.413H31.273v-6.513h11.125v-3.102H31.273v-5.893h11.942v-3.309h-15.82zm26.844 0l-8.471 22.23h3.98l2.144-5.894h8.676l2.143 5.893h4.083l-8.472-22.229h-4.083zm16.23 0v22.23H85.47v-3.413H74.244v-18.817h-3.777zm13.37 0v3.309h6.94v18.92h3.88v-18.92h6.94v-3.309h-17.76zm21.74 0v22.23h3.88v-10.03h10.002v10.03h3.879v-22.23h-3.88v8.788h-10.002v-8.788h-3.878zm64.916 0v22.23H180.6c5.695 0 8.063-2.714 8.063-6.204 0-3.023-1.4-5.199-4.083-5.79 2.001-.873 3.165-2.51 3.165-4.756 0-3.71-2.593-5.48-6.533-5.48h-10.717zm23.272 0v22.23h16.024v-3.413h-12.248v-6.513h11.126v-3.102h-11.126v-5.893h12.044v-3.309h-15.82zm26.435 0l-8.37 22.23h3.88l2.143-5.894h8.778l2.041 5.893h4.083l-8.472-22.229h-4.083zm15.31 0v14.165c0 5.703 3.67 8.581 9.085 8.581 5.417 0 8.982-2.878 8.982-8.581v-14.165h-3.879v12.924c0 2.99-.122 6.41-5.103 6.41s-5.206-3.42-5.206-6.41v-12.924h-3.878zm21.333 0v3.309h6.94v18.92h3.88v-18.92h6.94v-3.309h-17.76zm19.393 0l8.165 13.441v8.788h3.879v-8.788l8.267-13.44h-4.389l-5.715 9.925-5.818-9.926h-4.39zm-129.729 2.068c1.355 0 2.246 1.12 2.246 2.585 0 1.778-1.23 2.713-2.552 3.619-.8-1.121-2.042-2.259-2.042-3.723 0-1.493 1.058-2.481 2.348-2.481zm27.865 1.034h6.226c2.09 0 3.266.856 3.266 3.102 0 1.993-1.42 3.101-3.266 3.101h-6.226v-6.203zm-118.195.724h.102l3.266 9.512H52.91l3.267-9.512zm165.963 0h.102l3.368 9.512h-6.737l3.267-9.512zm-77.062 8.064l4.287 5.48c-.674.902-1.531 2.481-4.083 2.481-2.037 0-3.572-1.323-3.572-3.722 0-2.65 2.074-3.432 3.368-4.239zm29.294.207h6.838c2.336 0 3.675 1.228 3.675 3.412 0 2.241-1.34 3.515-3.675 3.515h-6.838v-6.927zm-91.045 28.433c-3.969 0-8.064 2.158-8.064 6.617 0 2.303 1.148 4.553 4.9 5.583 3.017.843 4.997 1.27 6.532 1.86.894.34 1.837 1.08 1.837 2.792 0 1.684-1.31 3.309-4.695 3.309-3.078 0-5.512-1.328-5.512-4.756h-3.878c.09 5.517 4.168 7.961 9.186 7.961 4.368 0 8.778-2.047 8.778-7.03 0-2.308-1.396-4.711-4.287-5.584-1.14-.343-5.99-1.662-6.328-1.757-1.568-.435-2.654-1.336-2.654-2.895 0-2.246 2.299-2.895 4.083-2.895 2.645 0 4.511 1.058 4.695 3.929h3.878c0-4.645-3.886-7.134-8.471-7.134zm41.133 0c-3.972 0-8.063 2.158-8.063 6.617 0 2.303 1.147 4.553 4.9 5.583 3.016.843 4.992 1.27 6.532 1.86.89.34 1.837 1.08 1.837 2.792 0 1.684-1.31 3.309-4.695 3.309-3.075 0-5.512-1.328-5.512-4.756h-3.879c.09 5.517 4.173 7.961 9.186 7.961 4.369 0 8.676-2.047 8.676-7.03 0-2.308-1.294-4.711-4.185-5.584-1.139-.343-6.095-1.662-6.43-1.757-1.572-.435-2.552-1.336-2.552-2.895 0-2.246 2.197-2.895 3.981-2.895 2.646 0 4.61 1.058 4.797 3.929h3.777c0-4.645-3.785-7.134-8.37-7.134zm89.106 0c-3.969 0-8.064 2.158-8.064 6.617 0 2.303 1.152 4.553 4.9 5.583 3.017.843 4.997 1.27 6.532 1.86.89.34 1.837 1.08 1.837 2.792 0 1.684-1.31 3.309-4.695 3.309-3.07 0-5.614-1.328-5.614-4.756h-3.776c.098 5.517 4.172 7.961 9.186 7.961 4.373 0 8.676-2.047 8.676-7.03 0-2.308-1.384-4.711-4.287-5.584-1.13-.343-5.993-1.662-6.328-1.757-1.568-.435-2.552-1.336-2.552-2.895 0-2.246 2.197-2.895 3.98-2.895 2.646 0 4.614 1.058 4.798 3.929h3.776c0-4.645-3.784-7.134-8.37-7.134zm-119.42.62l8.268 13.44v8.789h3.776v-8.788l8.268-13.441h-4.287l-5.716 9.925-5.818-9.925h-4.491zm40.93 0v3.308h6.94v18.921h3.879v-18.92h6.94v-3.31h-17.76zm21.127 0v22.229h16.025v-3.412h-12.248v-6.514h11.125v-3.205h-11.125v-5.79h12.044v-3.308h-15.82zm20.822 0v22.229h3.675V282.32h.102l6.022 17.163h3.164l6.124-17.163h.102v17.163h3.573v-22.23h-5.308l-5.92 17.37h-.102l-6.022-17.37h-5.41z" />
    </g>
</svg>